<?xml version="1.0" encoding="utf-8"?>
<!-- Generator: Adobe Illustrator 16.0.0, SVG Export Plug-In . SVG Version: 6.00 Build 0)  -->
<!DOCTYPE svg PUBLIC "-//W3C//DTD SVG 1.1//EN" "http://www.w3.org/Graphics/SVG/1.1/DTD/svg11.dtd">
<svg version="1.1" id="Layer_1" xmlns="http://www.w3.org/2000/svg" xmlns:xlink="http://www.w3.org/1999/xlink" x="0px" y="0px"
	 width="493.21px" height="196.74px" viewBox="0 0 493.21 196.74" enable-background="new 0 0 493.21 196.74" xml:space="preserve">
<g>
	<path fill="#D82121" d="M71.1,108.54c0.478-0.238,0.72,0,0.72,0.721c-0.72,0.602-1.412,1.35-2.07,2.25
		c-0.661,0.899-1.232,1.709-1.71,2.43c-0.841,1.561-2.52,2.641-5.04,3.24c-3.001,0.719-6.241,1.35-9.72,1.89
		c-3.482,0.54-7.02,1.052-10.62,1.53c-3.6,0.478-7.141,0.838-10.62,1.08c-3.482,0.238-6.781,0.359-9.9,0.359
		c-4.562,0-8.28-0.152-11.16-0.449c-2.88-0.302-5.13-0.783-6.75-1.441c-1.62-0.657-2.731-1.439-3.33-2.34
		C0.298,116.91,0,115.86,0,114.66c0-2.16,0.658-4.438,1.98-6.84c0.478-0.839,1.558-2.7,3.24-5.58c1.679-2.88,3.42-5.909,5.22-9.09
		c1.8-3.178,3.42-6.058,4.86-8.64c1.44-2.579,2.16-3.929,2.16-4.05c0-0.36-0.18-0.599-0.54-0.72c-0.36-0.118-1.201-0.18-2.52-0.18
		c-0.602,0-0.9-0.18-0.9-0.54c0-0.838,0.72-1.378,2.16-1.62c2.759-0.36,4.798-1.8,6.12-4.32c0.479-0.838,1.53-2.7,3.15-5.58
		c1.62-2.88,3.299-5.968,5.04-9.27c1.738-3.299,3.299-6.3,4.68-9c1.378-2.7,2.07-4.289,2.07-4.77c0-0.478-0.36-0.72-1.08-0.72
		c-3.6,0-7.2,0.121-10.8,0.36c-3.6,0.242-6.781,0.72-9.54,1.44l-0.36-0.18c0.239-2.039,0.72-3.42,1.44-4.14
		c3.718,0.242,7.65,0.422,11.79,0.54c4.14,0.121,8.069,0.18,11.79,0.18c1.319,0,3.6-0.059,6.84-0.18
		c3.24-0.118,6.868-0.239,10.89-0.36c4.019-0.118,8.069-0.239,12.15-0.36c4.078-0.118,7.56-0.18,10.44-0.18
		c0.72,0,1.08,0.301,1.08,0.9c-0.242,0.602-0.72,1.53-1.44,2.79c-0.72,1.26-1.381,2.551-1.98,3.87l-0.72-0.18
		c0-0.72-0.152-1.378-0.45-1.98c-0.301-0.599-0.63-0.959-0.99-1.08c-3.721-0.599-7.74-1.018-12.06-1.26
		c-4.32-0.239-8.64-0.36-12.96-0.36c-1.921,0-3.361,0.602-4.32,1.8c-3.24,4.32-6.511,9.211-9.81,14.67
		c-3.302,5.462-6.39,10.771-9.27,15.93c-0.481,1.08-0.121,1.62,1.08,1.62c1.679,0.121,3.358,0.18,5.04,0.18c1.679,0,3.42,0,5.22,0
		c5.519,0,10.35-0.149,14.49-0.45c4.14-0.298,8.308-0.928,12.51-1.89l0.54,0.54c-0.242,0.481-0.54,1.08-0.9,1.8
		c-0.36,0.72-0.661,1.381-0.9,1.98c-0.121,0.481-0.602,0.72-1.44,0.72c-3.122-0.118-6.511-0.208-10.17-0.27
		c-3.662-0.059-7.352-0.09-11.07-0.09c-2.762,0-5.462,0-8.1,0c-2.52,0-4.922,0.062-7.2,0.18c-0.962,0-1.62,0.36-1.98,1.08
		c-2.042,3.6-4.112,7.38-6.21,11.34c-2.101,3.96-3.932,7.802-5.49,11.52c-1.201,2.762-1.8,5.221-1.8,7.381
		c0,5.642,4.258,8.459,12.78,8.459c2.999,0,6.688-0.238,11.07-0.719c4.379-0.479,8.848-1.23,13.41-2.25
		c4.559-1.02,8.91-2.25,13.05-3.691C65.43,111.96,68.698,110.341,71.1,108.54z"/>
	<path fill="#D82121" d="M115.2,84.6c-0.121,2.281-1.021,4.77-2.7,7.47c-1.682,2.7-3.721,5.4-6.12,8.1
		c-2.402,2.7-5.071,5.341-8.01,7.921c-2.942,2.581-5.822,4.859-8.64,6.84c-2.821,1.979-5.431,3.6-7.83,4.859
		c-2.402,1.26-4.261,1.891-5.58,1.891l-2.88-2.881c0-0.479,0.239-0.658,0.72-0.539c2.759-0.24,5.04-1.289,6.84-3.15
		c1.8-1.859,3.178-5.549,4.14-11.07c0.239-1.318,0.478-2.79,0.72-4.41c0.239-1.62,0.478-3.178,0.72-4.68
		c0.239-1.499,0.509-2.849,0.81-4.05c0.298-1.198,0.568-2.039,0.81-2.52c0.479-1.44,0.63-2.309,0.45-2.61
		c-0.18-0.298-0.751-0.45-1.71-0.45l-5.22,0.9c-1.08-0.478-1.021-0.9,0.18-1.26c2.399-0.36,5.22-0.779,8.46-1.26
		c3.24-0.478,5.819-1.018,7.74-1.62c0.36,0.242,0.419,0.481,0.18,0.72c-0.481,0.36-1.021,0.782-1.62,1.26
		c-0.602,0.481-1.08,1.142-1.44,1.98c-0.602,1.322-1.111,2.942-1.53,4.86c-0.422,1.921-0.81,3.78-1.17,5.58
		c-0.36,1.8-0.692,3.451-0.99,4.951c-0.301,1.502-0.571,2.551-0.81,3.149c-0.72,2.042-1.921,4.022-3.6,5.94
		c-1.682,1.92-3.361,3.541-5.04,4.859c-0.481,0.842-0.422,1.08,0.18,0.721c3.479-1.199,6.809-2.791,9.99-4.771
		c3.178-1.979,6.03-4.319,8.55-7.021c2.52-2.699,4.59-5.729,6.21-9.089c1.62-3.358,2.61-7.02,2.97-10.98
		c0.36-4.68-0.36-7.74-2.16-9.18c-0.242-0.118-0.301-0.239-0.18-0.36c0.118-0.118,0.54-0.118,1.26,0
		c2.16,0.242,3.839,1.26,5.04,3.06C115.138,79.56,115.56,81.841,115.2,84.6z"/>
	<path fill="#D82121" d="M162,99.18c-2.042,2.52-4.472,5.129-7.29,7.831c-2.821,2.699-5.881,5.16-9.18,7.379
		c-3.302,2.223-6.722,4.022-10.26,5.4c-3.541,1.379-7.051,2.07-10.53,2.07c-5.642,0-8.46-2.52-8.46-7.561
		c0-3.357,0.869-6.988,2.61-10.89c1.738-3.898,3.988-7.498,6.75-10.8c2.759-3.299,5.788-6.058,9.09-8.28
		c3.299-2.219,6.449-3.33,9.45-3.33c1.679,0,2.849,0.301,3.51,0.9c0.658,0.602,0.99,1.381,0.99,2.34c0,1.44-0.45,3.001-1.35,4.68
		c-0.9,1.682-2.25,3.271-4.05,4.77c-1.8,1.502-4.081,2.762-6.84,3.78c-2.762,1.021-6.061,1.53-9.9,1.53
		c-0.602,1.08-1.26,2.79-1.98,5.13c-0.72,2.34-1.08,4.711-1.08,7.11c0,4.922,2.219,7.38,6.66,7.38c2.759,0,5.608-0.658,8.55-1.98
		c2.939-1.318,5.788-2.97,8.55-4.949c2.759-1.98,5.31-4.141,7.65-6.48c2.34-2.34,4.289-4.527,5.85-6.57
		c0.239-0.239,0.509-0.298,0.81-0.18C161.848,98.581,162,98.82,162,99.18z M143.099,85.14c0-1.558-0.782-2.34-2.34-2.34
		c-1.201,0-2.43,0.45-3.69,1.35c-1.26,0.9-2.492,2.07-3.69,3.51c-1.201,1.44-2.34,3.001-3.42,4.68c-1.08,1.682-1.98,3.302-2.7,4.86
		c0.239,0.121,0.658,0.211,1.26,0.27c0.599,0.062,1.08,0.09,1.44,0.09c3.479,0,6.539-1.229,9.18-3.69
		C141.777,91.412,143.099,88.501,143.099,85.14z"/>
	<path fill="#D82121" d="M238.859,3.24c0,1.682-0.661,4.14-1.98,7.38c-1.322,3.24-3.212,6.992-5.67,11.25
		c-2.461,4.261-5.462,8.82-9,13.68c-3.541,4.86-7.56,9.692-12.06,14.49c-4.5,4.801-9.45,9.391-14.85,13.77
		c-5.4,4.382-11.16,8.252-17.28,11.61c-1.08,1.921-2.582,4.5-4.5,7.74c-1.921,3.24-3.811,6.66-5.67,10.26
		c-1.862,3.6-3.482,7.142-4.86,10.62c-1.381,3.482-2.07,6.421-2.07,8.82c0,3.842,1.738,5.76,5.22,5.76c2.998,0,6.12-0.838,9.36-2.52
		c3.24-1.68,6.328-3.719,9.27-6.121c2.939-2.398,5.698-4.949,8.28-7.649c2.579-2.7,4.77-5.13,6.57-7.29
		c0.838-0.838,1.319-1.049,1.44-0.63c0.118,0.422-0.062,0.872-0.54,1.35c-2.16,2.641-4.711,5.461-7.65,8.459
		c-2.942,3.002-6.061,5.76-9.36,8.28c-3.302,2.521-6.75,4.621-10.35,6.3c-3.6,1.682-7.2,2.521-10.8,2.521
		c-3.122,0-5.372-0.749-6.75-2.25c-1.381-1.499-2.07-3.33-2.07-5.49s0.928-5.248,2.79-9.271c1.859-4.019,4.05-8.249,6.57-12.689
		c2.52-4.438,5.04-8.64,7.56-12.6c2.52-3.96,4.379-6.958,5.58-9c2.039-3.479,4.168-7.11,6.39-10.89c2.219-3.78,4.41-7.47,6.57-11.07
		c2.16-3.6,4.23-7.048,6.21-10.35c1.98-3.299,3.808-6.21,5.49-8.73c2.039-3.119,4.14-6.058,6.3-8.82
		c2.16-2.759,4.919-5.518,8.28-8.28c4.559-3.839,8.758-6.778,12.6-8.82c3.839-2.039,6.418-3.06,7.74-3.06
		c0.959,0,1.738,0.27,2.34,0.81C238.558,1.35,238.859,2.16,238.859,3.24z M230.759,7.92c0-1.918-0.782-2.88-2.34-2.88
		c-0.602,0-1.26,0.18-1.98,0.54c-0.72,0.36-1.651,1.111-2.79,2.25c-1.142,1.142-2.52,2.731-4.14,4.77
		c-1.62,2.042-3.69,4.68-6.21,7.92c-0.962,1.322-2.312,3.24-4.05,5.76c-1.741,2.52-3.96,5.85-6.66,9.99
		c-2.7,4.14-5.94,9.242-9.72,15.3c-3.78,6.061-8.252,13.23-13.41,21.51c7.2-4.078,13.95-9.028,20.25-14.85
		c6.3-5.819,11.728-11.79,16.29-17.91c4.559-6.12,8.159-12.06,10.8-17.82C229.438,16.74,230.759,11.88,230.759,7.92z"/>
	<path fill="#D82121" d="M192.779,118.62c-1.682,0-3.001-0.359-3.96-1.08c-0.962-0.72-1.44-1.8-1.44-3.24
		c0-2.398,1.468-5.968,4.41-10.709c2.939-4.74,6.508-10.351,10.71-16.831c0.478-0.599,0.869-1.049,1.17-1.35
		c0.298-0.298,0.63-0.568,0.99-0.81c0.599-0.118,1.409-0.27,2.43-0.45c1.018-0.18,1.648-0.27,1.89-0.27c0.478,0,0.72,0.18,0.72,0.54
		c-4.32,7.56-7.951,13.711-10.89,18.45c-2.942,4.742-4.41,8.432-4.41,11.07c0,1.439,0.658,2.16,1.98,2.16
		c0.599,0,1.378-0.181,2.34-0.541c0.959-0.359,1.98-0.838,3.06-1.439c1.08-0.6,2.098-1.229,3.06-1.891
		c0.959-0.658,1.679-1.287,2.16-1.889c1.08-1.08,2.669-3.629,4.77-7.65c2.098-4.02,4.649-8.73,7.65-14.13
		c1.44-2.638,2.79-4.86,4.05-6.66c1.26-1.8,2.309-2.7,3.15-2.7c0.478,0.242,0.928,0.841,1.35,1.8c0.419,0.962,0.63,1.921,0.63,2.88
		c0,0.481-0.54,1.592-1.62,3.33c-1.08,1.741-2.461,3.78-4.14,6.12c-1.682,2.34-3.51,4.832-5.49,7.47
		c-1.98,2.641-3.87,5.102-5.67,7.381c-4.32,6.601-8.671,13.41-13.05,20.43c-4.382,7.02-8.792,13.798-13.23,20.34
		c-4.438,6.539-9,12.719-13.68,18.54c-4.68,5.819-9.509,10.89-14.49,15.21c-4.979,4.32-10.139,7.74-15.48,10.26
		c-5.338,2.52-10.949,3.78-16.83,3.78c-3.479,0-6.598-0.841-9.36-2.521c-2.759-1.682-4.14-4.621-4.14-8.82
		c0-0.961,0.09-1.951,0.27-2.969c0.18-1.021,0.391-1.832,0.63-2.431c0.121-0.36,0.301-0.602,0.54-0.72
		c0.242-0.121,0.36,0.059,0.36,0.54c0,3.239,1.201,6.179,3.6,8.819c2.402,2.639,6.66,3.961,12.78,3.961
		c4.922,0,9.81-1.232,14.67-3.69c4.86-2.461,9.602-5.731,14.22-9.81c4.621-4.082,9.09-8.82,13.41-14.221
		c4.32-5.4,8.491-11.041,12.51-16.92c4.019-5.881,7.83-11.79,11.43-17.73c3.6-5.939,6.899-11.547,9.9-16.83
		c0.239-0.478,0.239-0.657,0-0.539c-0.242,0.121-0.422,0.242-0.54,0.359c-1.322,1.08-3.122,2.25-5.4,3.51
		C197.518,117.99,195.178,118.62,192.779,118.62z"/>
	<path fill="#D82121" d="M287.458,97.38c-2.16,3.001-4.652,6.03-7.47,9.09c-2.821,3.061-5.821,5.791-9,8.19
		c-3.181,2.401-6.421,4.382-9.72,5.94c-3.303,1.558-6.512,2.34-9.631,2.34c-1.439,0-2.762-0.211-3.959-0.631
		c-1.201-0.422-1.801-1.471-1.801-3.149s0.6-3.808,1.801-6.39c1.197-2.58,2.609-5.311,4.229-8.19s3.299-5.819,5.04-8.82
		c1.738-2.998,3.15-5.76,4.23-8.28c0.238-0.599,0.27-1.108,0.09-1.53c-0.18-0.419-0.571-0.45-1.17-0.09
		c-1.322,0.841-2.881,1.98-4.681,3.42s-3.631,2.97-5.489,4.59c-1.862,1.62-3.662,3.271-5.4,4.95c-1.741,1.682-3.15,3.181-4.23,4.5
		c-1.921,3.001-3.572,5.76-4.95,8.28c-1.381,2.52-3.091,5.34-5.13,8.459c-0.481,0.721-0.841,1.08-1.08,1.08
		c-0.602,0-1.111-0.658-1.53-1.979c-0.422-1.319-0.63-2.16-0.63-2.521c0-1.08,0.748-2.548,2.25-4.41
		c1.499-1.858,3.15-3.928,4.95-6.209c1.918-3.84,3.898-7.89,5.94-12.15c2.039-4.258,3.779-8.069,5.221-11.43
		c0.359-0.599,0.899-0.9,1.619-0.9c0.721,0,1.379,0.301,1.98,0.9c0.599,0.602,0.9,1.26,0.9,1.98c0,0.481-0.873,2.132-2.611,4.95
		c-1.74,2.821-3.45,6.092-5.129,9.81c2.277-2.039,4.77-4.199,7.47-6.48c2.7-2.278,5.278-4.379,7.739-6.3
		c2.459-1.918,4.619-3.51,6.48-4.77c1.859-1.26,3.15-1.89,3.87-1.89c0.478,0,0.929,0.27,1.351,0.81
		c0.418,0.54,0.629,1.052,0.629,1.53c0,0.481-0.301,1.201-0.899,2.16c-1.321,1.921-2.942,4.382-4.86,7.38
		c-1.921,3.001-3.752,6.092-5.49,9.27c-1.74,3.182-3.211,6.211-4.41,9.09c-1.2,2.881-1.799,5.162-1.799,6.841
		c0,1.44,0.297,2.43,0.899,2.97c0.599,0.54,1.558,0.811,2.88,0.811c2.039,0,4.438-0.779,7.2-2.34
		c2.759-1.559,5.608-3.511,8.55-5.851c2.939-2.34,5.729-4.95,8.37-7.83c2.638-2.88,4.798-5.639,6.479-8.28
		c0.24-0.36,0.6-0.45,1.08-0.27C288.116,96.21,288.058,96.66,287.458,97.38z"/>
	<path d="M320.747,86.325l14.113,34.275h-1.344l-4.609-11.281H311.05l-4.609,11.281h-1.344l14.113-34.275H320.747z M328.427,108.167
		l-8.352-20.594h-0.145l-8.4,20.594H328.427z"/>
	<path d="M357.61,88.533c2.113,1.92,3.361,4.561,3.648,7.921h-1.152c-0.287-3.072-1.391-5.425-3.264-7.104
		c-1.92-1.729-4.512-2.544-7.777-2.544c-3.168,0-5.711,0.576-7.584,1.824c-2.064,1.296-3.072,3.168-3.072,5.665
		c0,2.208,1.248,3.984,3.793,5.28c1.152,0.576,3.504,1.345,7.057,2.304c4.176,1.057,7.104,2.113,8.736,3.169
		c2.688,1.632,4.08,4.032,4.08,7.104c0,2.832-1.248,5.088-3.695,6.769c-2.305,1.536-5.281,2.353-8.881,2.353
		c-3.746,0-6.721-0.961-8.93-2.881c-2.4-2.111-3.744-5.137-4.033-9.121h1.105c0.287,3.602,1.535,6.337,3.744,8.258
		c2.016,1.728,4.705,2.592,8.064,2.592s6.096-0.721,8.256-2.16c2.113-1.44,3.217-3.408,3.217-5.809c0-2.688-1.248-4.801-3.695-6.24
		c-1.488-0.912-4.225-1.873-8.162-2.881c-3.984-1.056-6.623-1.968-7.871-2.64c-2.641-1.44-3.938-3.504-3.938-6.096
		c0-2.928,1.201-5.137,3.648-6.625c2.113-1.344,4.801-2.016,8.16-2.016C352.618,85.653,355.499,86.613,357.61,88.533z"/>
	<path d="M368.505,86.325v15.842h23.857V86.325h1.152v34.275h-1.152v-17.282h-23.857v17.282h-1.152V86.325H368.505z"/>
	<path d="M426.155,86.325v1.152h-13.441v33.124h-1.152V87.477h-13.49v-1.152H426.155z"/>
	<path d="M457.067,90.886c2.688,3.264,4.08,7.488,4.08,12.576c0,5.09-1.393,9.266-4.129,12.578
		c-2.928,3.456-6.865,5.232-11.809,5.232c-4.992,0-8.93-1.776-11.811-5.232c-2.783-3.312-4.127-7.488-4.127-12.578
		c0-5.088,1.344-9.312,4.127-12.576c2.93-3.504,6.865-5.232,11.857-5.232C450.202,85.653,454.138,87.381,457.067,90.886z
		 M434.312,91.654c-2.592,3.072-3.887,7.008-3.887,11.808c0,4.801,1.248,8.737,3.84,11.81c2.688,3.216,6.336,4.849,10.945,4.849
		c4.561,0,8.209-1.633,10.945-4.849c2.543-3.072,3.84-7.009,3.84-11.81c0-4.848-1.297-8.784-3.84-11.808
		c-2.689-3.265-6.338-4.849-10.898-4.849C440.649,86.805,437.001,88.389,434.312,91.654z"/>
	<path d="M468.681,86.325l23.281,33.074h0.096V86.325h1.152v34.275h-1.729l-23.33-33.219h-0.096v33.219h-1.152V86.325H468.681z"/>
</g>
<g>
	<polygon fill="none" stroke="#000000" stroke-miterlimit="10" points="422.79,32.051 406.124,67.968 389.124,67.968 388.79,67.968 
		372.124,32.051 397.457,59.254 	"/>
	<polyline fill="none" stroke="#000000" stroke-miterlimit="10" points="388.79,67.468 397.457,32.457 406.124,67.468 	"/>
</g>
<circle fill="none" stroke="#000000" stroke-miterlimit="10" cx="397.457" cy="22.457" r="3.023"/>
<circle fill="none" stroke="#000000" stroke-miterlimit="10" cx="427.457" cy="22.457" r="3.023"/>
<circle fill="none" stroke="#000000" stroke-miterlimit="10" cx="367.457" cy="22.457" r="3.023"/>
<g>
	<path fill="#D82121" d="M71.1,108.54c0.478-0.238,0.72,0,0.72,0.721c-0.72,0.602-1.412,1.35-2.07,2.25
		c-0.661,0.899-1.232,1.709-1.71,2.43c-0.841,1.561-2.52,2.641-5.04,3.24c-3.001,0.719-6.241,1.35-9.72,1.89
		c-3.482,0.54-7.02,1.052-10.62,1.53c-3.6,0.478-7.141,0.838-10.62,1.08c-3.482,0.238-6.781,0.359-9.9,0.359
		c-4.562,0-8.28-0.152-11.16-0.449c-2.88-0.302-5.13-0.783-6.75-1.441c-1.62-0.657-2.731-1.439-3.33-2.34
		C0.298,116.91,0,115.86,0,114.66c0-2.16,0.658-4.438,1.98-6.84c0.478-0.839,1.558-2.7,3.24-5.58c1.679-2.88,3.42-5.909,5.22-9.09
		c1.8-3.178,3.42-6.058,4.86-8.64c1.44-2.579,2.16-3.929,2.16-4.05c0-0.36-0.18-0.599-0.54-0.72c-0.36-0.118-1.201-0.18-2.52-0.18
		c-0.602,0-0.9-0.18-0.9-0.54c0-0.838,0.72-1.378,2.16-1.62c2.759-0.36,4.798-1.8,6.12-4.32c0.479-0.838,1.53-2.7,3.15-5.58
		c1.62-2.88,3.299-5.968,5.04-9.27c1.738-3.299,3.299-6.3,4.68-9c1.378-2.7,2.07-4.289,2.07-4.77c0-0.478-0.36-0.72-1.08-0.72
		c-3.6,0-7.2,0.121-10.8,0.36c-3.6,0.242-6.781,0.72-9.54,1.44l-0.36-0.18c0.239-2.039,0.72-3.42,1.44-4.14
		c3.718,0.242,7.65,0.422,11.79,0.54c4.14,0.121,8.069,0.18,11.79,0.18c1.319,0,3.6-0.059,6.84-0.18
		c3.24-0.118,6.868-0.239,10.89-0.36c4.019-0.118,8.069-0.239,12.15-0.36c4.078-0.118,7.56-0.18,10.44-0.18
		c0.72,0,1.08,0.301,1.08,0.9c-0.242,0.602-0.72,1.53-1.44,2.79c-0.72,1.26-1.381,2.551-1.98,3.87l-0.72-0.18
		c0-0.72-0.152-1.378-0.45-1.98c-0.301-0.599-0.63-0.959-0.99-1.08c-3.721-0.599-7.74-1.018-12.06-1.26
		c-4.32-0.239-8.64-0.36-12.96-0.36c-1.921,0-3.361,0.602-4.32,1.8c-3.24,4.32-6.511,9.211-9.81,14.67
		c-3.302,5.462-6.39,10.771-9.27,15.93c-0.481,1.08-0.121,1.62,1.08,1.62c1.679,0.121,3.358,0.18,5.04,0.18c1.679,0,3.42,0,5.22,0
		c5.519,0,10.35-0.149,14.49-0.45c4.14-0.298,8.308-0.928,12.51-1.89l0.54,0.54c-0.242,0.481-0.54,1.08-0.9,1.8
		c-0.36,0.72-0.661,1.381-0.9,1.98c-0.121,0.481-0.602,0.72-1.44,0.72c-3.122-0.118-6.511-0.208-10.17-0.27
		c-3.662-0.059-7.352-0.09-11.07-0.09c-2.762,0-5.462,0-8.1,0c-2.52,0-4.922,0.062-7.2,0.18c-0.962,0-1.62,0.36-1.98,1.08
		c-2.042,3.6-4.112,7.38-6.21,11.34c-2.101,3.96-3.932,7.802-5.49,11.52c-1.201,2.762-1.8,5.221-1.8,7.381
		c0,5.642,4.258,8.459,12.78,8.459c2.999,0,6.688-0.238,11.07-0.719c4.379-0.479,8.848-1.23,13.41-2.25
		c4.559-1.02,8.91-2.25,13.05-3.691C65.43,111.96,68.698,110.341,71.1,108.54z"/>
	<path fill="#D82121" d="M115.2,84.6c-0.121,2.281-1.021,4.77-2.7,7.47c-1.682,2.7-3.721,5.4-6.12,8.1
		c-2.402,2.7-5.071,5.341-8.01,7.921c-2.942,2.581-5.822,4.859-8.64,6.84c-2.821,1.979-5.431,3.6-7.83,4.859
		c-2.402,1.26-4.261,1.891-5.58,1.891l-2.88-2.881c0-0.479,0.239-0.658,0.72-0.539c2.759-0.24,5.04-1.289,6.84-3.15
		c1.8-1.859,3.178-5.549,4.14-11.07c0.239-1.318,0.478-2.79,0.72-4.41c0.239-1.62,0.478-3.178,0.72-4.68
		c0.239-1.499,0.509-2.849,0.81-4.05c0.298-1.198,0.568-2.039,0.81-2.52c0.479-1.44,0.63-2.309,0.45-2.61
		c-0.18-0.298-0.751-0.45-1.71-0.45l-5.22,0.9c-1.08-0.478-1.021-0.9,0.18-1.26c2.399-0.36,5.22-0.779,8.46-1.26
		c3.24-0.478,5.819-1.018,7.74-1.62c0.36,0.242,0.419,0.481,0.18,0.72c-0.481,0.36-1.021,0.782-1.62,1.26
		c-0.602,0.481-1.08,1.142-1.44,1.98c-0.602,1.322-1.111,2.942-1.53,4.86c-0.422,1.921-0.81,3.78-1.17,5.58
		c-0.36,1.8-0.692,3.451-0.99,4.951c-0.301,1.502-0.571,2.551-0.81,3.149c-0.72,2.042-1.921,4.022-3.6,5.94
		c-1.682,1.92-3.361,3.541-5.04,4.859c-0.481,0.842-0.422,1.08,0.18,0.721c3.479-1.199,6.809-2.791,9.99-4.771
		c3.178-1.979,6.03-4.319,8.55-7.021c2.52-2.699,4.59-5.729,6.21-9.089c1.62-3.358,2.61-7.02,2.97-10.98
		c0.36-4.68-0.36-7.74-2.16-9.18c-0.242-0.118-0.301-0.239-0.18-0.36c0.118-0.118,0.54-0.118,1.26,0
		c2.16,0.242,3.839,1.26,5.04,3.06C115.138,79.56,115.56,81.841,115.2,84.6z"/>
	<path fill="#D82121" d="M162,99.18c-2.042,2.52-4.472,5.129-7.29,7.831c-2.821,2.699-5.881,5.16-9.18,7.379
		c-3.302,2.223-6.722,4.022-10.26,5.4c-3.541,1.379-7.051,2.07-10.53,2.07c-5.642,0-8.46-2.52-8.46-7.561
		c0-3.357,0.869-6.988,2.61-10.89c1.738-3.898,3.988-7.498,6.75-10.8c2.759-3.299,5.788-6.058,9.09-8.28
		c3.299-2.219,6.449-3.33,9.45-3.33c1.679,0,2.849,0.301,3.51,0.9c0.658,0.602,0.99,1.381,0.99,2.34c0,1.44-0.45,3.001-1.35,4.68
		c-0.9,1.682-2.25,3.271-4.05,4.77c-1.8,1.502-4.081,2.762-6.84,3.78c-2.762,1.021-6.061,1.53-9.9,1.53
		c-0.602,1.08-1.26,2.79-1.98,5.13c-0.72,2.34-1.08,4.711-1.08,7.11c0,4.922,2.219,7.38,6.66,7.38c2.759,0,5.608-0.658,8.55-1.98
		c2.939-1.318,5.788-2.97,8.55-4.949c2.759-1.98,5.31-4.141,7.65-6.48c2.34-2.34,4.289-4.527,5.85-6.57
		c0.239-0.239,0.509-0.298,0.81-0.18C161.848,98.581,162,98.82,162,99.18z M143.099,85.14c0-1.558-0.782-2.34-2.34-2.34
		c-1.201,0-2.43,0.45-3.69,1.35c-1.26,0.9-2.492,2.07-3.69,3.51c-1.201,1.44-2.34,3.001-3.42,4.68c-1.08,1.682-1.98,3.302-2.7,4.86
		c0.239,0.121,0.658,0.211,1.26,0.27c0.599,0.062,1.08,0.09,1.44,0.09c3.479,0,6.539-1.229,9.18-3.69
		C141.777,91.412,143.099,88.501,143.099,85.14z"/>
	<path fill="#D82121" d="M238.859,3.24c0,1.682-0.661,4.14-1.98,7.38c-1.322,3.24-3.212,6.992-5.67,11.25
		c-2.461,4.261-5.462,8.82-9,13.68c-3.541,4.86-7.56,9.692-12.06,14.49c-4.5,4.801-9.45,9.391-14.85,13.77
		c-5.4,4.382-11.16,8.252-17.28,11.61c-1.08,1.921-2.582,4.5-4.5,7.74c-1.921,3.24-3.811,6.66-5.67,10.26
		c-1.862,3.6-3.482,7.142-4.86,10.62c-1.381,3.482-2.07,6.421-2.07,8.82c0,3.842,1.738,5.76,5.22,5.76c2.998,0,6.12-0.838,9.36-2.52
		c3.24-1.68,6.328-3.719,9.27-6.121c2.939-2.398,5.698-4.949,8.28-7.649c2.579-2.7,4.77-5.13,6.57-7.29
		c0.838-0.838,1.319-1.049,1.44-0.63c0.118,0.422-0.062,0.872-0.54,1.35c-2.16,2.641-4.711,5.461-7.65,8.459
		c-2.942,3.002-6.061,5.76-9.36,8.28c-3.302,2.521-6.75,4.621-10.35,6.3c-3.6,1.682-7.2,2.521-10.8,2.521
		c-3.122,0-5.372-0.749-6.75-2.25c-1.381-1.499-2.07-3.33-2.07-5.49s0.928-5.248,2.79-9.271c1.859-4.019,4.05-8.249,6.57-12.689
		c2.52-4.438,5.04-8.64,7.56-12.6c2.52-3.96,4.379-6.958,5.58-9c2.039-3.479,4.168-7.11,6.39-10.89c2.219-3.78,4.41-7.47,6.57-11.07
		c2.16-3.6,4.23-7.048,6.21-10.35c1.98-3.299,3.808-6.21,5.49-8.73c2.039-3.119,4.14-6.058,6.3-8.82
		c2.16-2.759,4.919-5.518,8.28-8.28c4.559-3.839,8.758-6.778,12.6-8.82c3.839-2.039,6.418-3.06,7.74-3.06
		c0.959,0,1.738,0.27,2.34,0.81C238.558,1.35,238.859,2.16,238.859,3.24z M230.759,7.92c0-1.918-0.782-2.88-2.34-2.88
		c-0.602,0-1.26,0.18-1.98,0.54c-0.72,0.36-1.651,1.111-2.79,2.25c-1.142,1.142-2.52,2.731-4.14,4.77
		c-1.62,2.042-3.69,4.68-6.21,7.92c-0.962,1.322-2.312,3.24-4.05,5.76c-1.741,2.52-3.96,5.85-6.66,9.99
		c-2.7,4.14-5.94,9.242-9.72,15.3c-3.78,6.061-8.252,13.23-13.41,21.51c7.2-4.078,13.95-9.028,20.25-14.85
		c6.3-5.819,11.728-11.79,16.29-17.91c4.559-6.12,8.159-12.06,10.8-17.82C229.438,16.74,230.759,11.88,230.759,7.92z"/>
	<path fill="#D82121" d="M192.779,118.62c-1.682,0-3.001-0.359-3.96-1.08c-0.962-0.72-1.44-1.8-1.44-3.24
		c0-2.398,1.468-5.968,4.41-10.709c2.939-4.74,6.508-10.351,10.71-16.831c0.478-0.599,0.869-1.049,1.17-1.35
		c0.298-0.298,0.63-0.568,0.99-0.81c0.599-0.118,1.409-0.27,2.43-0.45c1.018-0.18,1.648-0.27,1.89-0.27c0.478,0,0.72,0.18,0.72,0.54
		c-4.32,7.56-7.951,13.711-10.89,18.45c-2.942,4.742-4.41,8.432-4.41,11.07c0,1.439,0.658,2.16,1.98,2.16
		c0.599,0,1.378-0.181,2.34-0.541c0.959-0.359,1.98-0.838,3.06-1.439c1.08-0.6,2.098-1.229,3.06-1.891
		c0.959-0.658,1.679-1.287,2.16-1.889c1.08-1.08,2.669-3.629,4.77-7.65c2.098-4.02,4.649-8.73,7.65-14.13
		c1.44-2.638,2.79-4.86,4.05-6.66c1.26-1.8,2.309-2.7,3.15-2.7c0.478,0.242,0.928,0.841,1.35,1.8c0.419,0.962,0.63,1.921,0.63,2.88
		c0,0.481-0.54,1.592-1.62,3.33c-1.08,1.741-2.461,3.78-4.14,6.12c-1.682,2.34-3.51,4.832-5.49,7.47
		c-1.98,2.641-3.87,5.102-5.67,7.381c-4.32,6.601-8.671,13.41-13.05,20.43c-4.382,7.02-8.792,13.798-13.23,20.34
		c-4.438,6.539-9,12.719-13.68,18.54c-4.68,5.819-9.509,10.89-14.49,15.21c-4.979,4.32-10.139,7.74-15.48,10.26
		c-5.338,2.52-10.949,3.78-16.83,3.78c-3.479,0-6.598-0.841-9.36-2.521c-2.759-1.682-4.14-4.621-4.14-8.82
		c0-0.961,0.09-1.951,0.27-2.969c0.18-1.021,0.391-1.832,0.63-2.431c0.121-0.36,0.301-0.602,0.54-0.72
		c0.242-0.121,0.36,0.059,0.36,0.54c0,3.239,1.201,6.179,3.6,8.819c2.402,2.639,6.66,3.961,12.78,3.961
		c4.922,0,9.81-1.232,14.67-3.69c4.86-2.461,9.602-5.731,14.22-9.81c4.621-4.082,9.09-8.82,13.41-14.221
		c4.32-5.4,8.491-11.041,12.51-16.92c4.019-5.881,7.83-11.79,11.43-17.73c3.6-5.939,6.899-11.547,9.9-16.83
		c0.239-0.478,0.239-0.657,0-0.539c-0.242,0.121-0.422,0.242-0.54,0.359c-1.322,1.08-3.122,2.25-5.4,3.51
		C197.518,117.99,195.178,118.62,192.779,118.62z"/>
	<path fill="#D82121" d="M287.458,97.38c-2.16,3.001-4.652,6.03-7.471,9.09c-2.82,3.061-5.821,5.791-9,8.19
		c-3.181,2.401-6.42,4.382-9.72,5.94c-3.302,1.558-6.511,2.34-9.63,2.34c-1.439,0-2.762-0.211-3.96-0.631
		c-1.201-0.422-1.8-1.471-1.8-3.149s0.599-3.808,1.8-6.39c1.198-2.58,2.61-5.311,4.229-8.19c1.621-2.88,3.299-5.819,5.041-8.82
		c1.738-2.998,3.149-5.76,4.229-8.28c0.239-0.599,0.271-1.108,0.09-1.53c-0.18-0.419-0.571-0.45-1.17-0.09
		c-1.321,0.841-2.88,1.98-4.681,3.42c-1.799,1.44-3.631,2.97-5.489,4.59c-1.862,1.62-3.662,3.271-5.399,4.95
		c-1.742,1.682-3.15,3.181-4.23,4.5c-1.921,3.001-3.572,5.76-4.95,8.28c-1.381,2.52-3.091,5.34-5.13,8.459
		c-0.481,0.721-0.841,1.08-1.08,1.08c-0.602,0-1.111-0.658-1.53-1.979c-0.422-1.319-0.63-2.16-0.63-2.521
		c0-1.08,0.748-2.548,2.25-4.41c1.499-1.858,3.15-3.928,4.95-6.209c1.918-3.84,3.898-7.89,5.94-12.15
		c2.04-4.258,3.78-8.069,5.22-11.43c0.36-0.599,0.899-0.9,1.62-0.9c0.72,0,1.378,0.301,1.979,0.9c0.599,0.602,0.9,1.26,0.9,1.98
		c0,0.481-0.872,2.132-2.61,4.95c-1.74,2.821-3.451,6.092-5.13,9.81c2.278-2.039,4.771-4.199,7.47-6.48
		c2.7-2.278,5.279-4.379,7.74-6.3c2.458-1.918,4.618-3.51,6.48-4.77c1.859-1.26,3.149-1.89,3.869-1.89
		c0.479,0,0.929,0.27,1.351,0.81c0.419,0.54,0.63,1.052,0.63,1.53c0,0.481-0.301,1.201-0.9,2.16
		c-1.321,1.921-2.941,4.382-4.859,7.38c-1.922,3.001-3.752,6.092-5.49,9.27c-1.74,3.182-3.212,6.211-4.41,9.09
		c-1.201,2.881-1.8,5.162-1.8,6.841c0,1.44,0.298,2.43,0.899,2.97c0.6,0.54,1.559,0.811,2.881,0.811c2.039,0,4.438-0.779,7.199-2.34
		c2.76-1.559,5.608-3.511,8.551-5.851c2.939-2.34,5.729-4.95,8.369-7.83c2.639-2.88,4.799-5.639,6.48-8.28
		c0.239-0.36,0.6-0.45,1.08-0.27C288.116,96.21,288.057,96.66,287.458,97.38z"/>
	<path d="M320.747,86.325l14.113,34.275h-1.344l-4.607-11.281H311.05l-4.607,11.281h-1.344l14.113-34.275H320.747z M328.429,108.167
		l-8.354-20.594h-0.145l-8.4,20.594H328.429z"/>
	<path d="M357.612,88.533c2.111,1.92,3.359,4.561,3.648,7.921h-1.152c-0.289-3.072-1.393-5.425-3.264-7.104
		c-1.922-1.729-4.514-2.544-7.777-2.544c-3.168,0-5.713,0.576-7.584,1.824c-2.064,1.296-3.072,3.168-3.072,5.665
		c0,2.208,1.248,3.984,3.791,5.28c1.152,0.576,3.504,1.345,7.057,2.304c4.176,1.057,7.105,2.113,8.736,3.169
		c2.689,1.632,4.082,4.032,4.082,7.104c0,2.832-1.248,5.088-3.697,6.769c-2.305,1.536-5.281,2.353-8.881,2.353
		c-3.744,0-6.721-0.961-8.928-2.881c-2.4-2.111-3.746-5.137-4.033-9.121h1.104c0.289,3.602,1.537,6.337,3.744,8.258
		c2.018,1.728,4.705,2.592,8.066,2.592c3.359,0,6.096-0.721,8.256-2.16c2.111-1.44,3.217-3.408,3.217-5.809
		c0-2.688-1.248-4.801-3.697-6.24c-1.488-0.912-4.225-1.873-8.16-2.881c-3.984-1.056-6.625-1.968-7.873-2.64
		c-2.641-1.44-3.936-3.504-3.936-6.096c0-2.928,1.199-5.137,3.648-6.625c2.111-1.344,4.799-2.016,8.16-2.016
		C352.62,85.653,355.499,86.613,357.612,88.533z"/>
	<path d="M368.505,86.325v15.842h23.857V86.325h1.152v34.275h-1.152v-17.282h-23.857v17.282h-1.152V86.325H368.505z"/>
	<path d="M426.155,86.325v1.152h-13.441v33.124h-1.152V87.477h-13.488v-1.152H426.155z"/>
	<path d="M457.067,90.886c2.688,3.264,4.08,7.488,4.08,12.576c0,5.09-1.393,9.266-4.129,12.578
		c-2.928,3.456-6.863,5.232-11.809,5.232c-4.992,0-8.928-1.776-11.809-5.232c-2.785-3.312-4.129-7.488-4.129-12.578
		c0-5.088,1.344-9.312,4.129-12.576c2.928-3.504,6.865-5.232,11.857-5.232C450.202,85.653,454.14,87.381,457.067,90.886z
		 M434.313,91.654c-2.592,3.072-3.889,7.008-3.889,11.808c0,4.801,1.248,8.737,3.84,11.81c2.689,3.216,6.338,4.849,10.945,4.849
		c4.561,0,8.209-1.633,10.945-4.849c2.545-3.072,3.84-7.009,3.84-11.81c0-4.848-1.295-8.784-3.84-11.808
		c-2.688-3.265-6.336-4.849-10.896-4.849C440.649,86.805,437.001,88.389,434.313,91.654z"/>
	<path d="M468.681,86.325l23.281,33.074h0.098V86.325h1.15v34.275h-1.727l-23.33-33.219h-0.098v33.219h-1.15V86.325H468.681z"/>
</g>
</svg>
